<svg xmlns="http://www.w3.org/2000/svg" viewBox="0 0 64 64"><defs><style>.cls-1{fill:#fff;}</style></defs><g id="_33.star" data-name="33.star"><path class="cls-1" d="M47.4,31.27A14.46,14.46,0,0,1,33,16.82a1,1,0,0,0-2,0A14.47,14.47,0,0,1,16.49,31.27a1,1,0,0,0,0,2A14.48,14.48,0,0,1,31,47.73a1,1,0,0,0,2,0A14.47,14.47,0,0,1,47.4,33.27,1,1,0,0,0,47.4,31.27Z"/><path class="cls-1" d="M25.51,45.28a7.34,7.34,0,0,1-7.34-7.34,1,1,0,0,0-2,0,7.35,7.35,0,0,1-7.35,7.34,1,1,0,0,0,0,2,7.36,7.36,0,0,1,7.35,7.35,1,1,0,0,0,2,0,7.35,7.35,0,0,1,7.34-7.35A1,1,0,0,0,25.51,45.28Z"/><path class="cls-1" d="M55.18,16.72a7.36,7.36,0,0,1-7.35-7.35,1,1,0,0,0-2,0,7.35,7.35,0,0,1-7.34,7.35,1,1,0,0,0,0,2,7.34,7.34,0,0,1,7.34,7.34,1,1,0,0,0,2,0,7.35,7.35,0,0,1,7.35-7.34A1,1,0,0,0,55.18,16.72Z"/><path d="M47.4,31.27A14.46,14.46,0,0,1,33,16.82a1,1,0,0,0-2,0A14.47,14.47,0,0,1,16.49,31.27a1,1,0,0,0,0,2A14.48,14.48,0,0,1,31,47.73a1,1,0,0,0,2,0A14.47,14.47,0,0,1,47.4,33.27,1,1,0,0,0,47.4,31.27ZM32,42.13a16.55,16.55,0,0,0-9.86-9.86A16.49,16.49,0,0,0,32,22.41a16.47,16.47,0,0,0,9.86,9.86A16.52,16.52,0,0,0,32,42.13Z"/><path d="M25.51,45.28a7.34,7.34,0,0,1-7.34-7.34,1,1,0,0,0-2,0,7.35,7.35,0,0,1-7.35,7.34,1,1,0,0,0,0,2,7.36,7.36,0,0,1,7.35,7.35,1,1,0,0,0,2,0,7.35,7.35,0,0,1,7.34-7.35A1,1,0,0,0,25.51,45.28Zm-8.34,5.16A9.45,9.45,0,0,0,13,46.28a9.4,9.4,0,0,0,4.16-4.16,9.4,9.4,0,0,0,4.16,4.16A9.45,9.45,0,0,0,17.17,50.44Z"/><path d="M55.18,16.72a7.36,7.36,0,0,1-7.35-7.35,1,1,0,0,0-2,0,7.35,7.35,0,0,1-7.34,7.35,1,1,0,0,0,0,2,7.34,7.34,0,0,1,7.34,7.34,1,1,0,0,0,2,0,7.35,7.35,0,0,1,7.35-7.34A1,1,0,0,0,55.18,16.72Zm-8.35,5.16a9.4,9.4,0,0,0-4.16-4.16,9.45,9.45,0,0,0,4.16-4.16A9.5,9.5,0,0,0,51,17.72,9.45,9.45,0,0,0,46.83,21.88Z"/></g></svg>