<?xml version="1.0" encoding="UTF-8" standalone="no"?> <svg xmlns="http://www.w3.org/2000/svg" viewBox="0 0 64 64"><g id="Layer_87" data-name="Layer 87"><path d="M50.69,14.42H13.31a1.5,1.5,0,0,0,0,3H50.69A1.5,1.5,0,0,0,50.69,14.42Z"/><path d="M50.69,30.5H13.31a1.5,1.5,0,0,0,0,3H50.69A1.5,1.5,0,0,0,50.69,30.5Z"/><path d="M50.69,46.58H13.31a1.5,1.5,0,0,0,0,3H50.69A1.5,1.5,0,0,0,50.69,46.58Z"/><path d="M58,2.5H6A3.5,3.5,0,0,0,2.5,6V58A3.5,3.5,0,0,0,6,61.5H58A3.5,3.5,0,0,0,61.5,58V6A3.5,3.5,0,0,0,58,2.5ZM58.5,58a.5.5,0,0,1-.5.5H6a.5.5,0,0,1-.5-.5V6A.5.5,0,0,1,6,5.5H58a.5.5,0,0,1,.5.5Z"/></g></svg>