<?xml version="1.0" encoding="UTF-8" standalone="no"?> <svg width="64" height="64" viewBox="0 0 64 64" fill="none" xmlns="http://www.w3.org/2000/svg">
<path d="M54.1501 15L42.4901 3.29C42.2954 3.10578 42.0381 3.00216 41.7701 3H14.5601C13.234 3 11.9622 3.52678 11.0245 4.46447C10.0868 5.40215 9.56006 6.67392 9.56006 8V56C9.56006 57.3261 10.0868 58.5979 11.0245 59.5355C11.9622 60.4732 13.234 61 14.5601 61H49.4301C50.7561 61 52.0279 60.4732 52.9656 59.5355C53.9033 58.5979 54.4301 57.3261 54.4301 56V15.77C54.4404 15.6292 54.4208 15.4877 54.3725 15.355C54.3243 15.2223 54.2485 15.1013 54.1501 15ZM42.7701 6.41L51.0001 14.66H42.7701V6.41ZM49.4301 59H14.5601C13.7644 59 13.0013 58.6839 12.4387 58.1213C11.8761 57.5587 11.5601 56.7956 11.5601 56V8C11.5601 7.20435 11.8761 6.44129 12.4387 5.87868C13.0013 5.31607 13.7644 5 14.5601 5H40.7701V15.66C40.7701 15.9252 40.8754 16.1796 41.063 16.3671C41.2505 16.5546 41.5048 16.66 41.7701 16.66H52.4301V56C52.4301 56.7956 52.114 57.5587 51.5514 58.1213C50.9888 58.6839 50.2257 59 49.4301 59V59Z" fill="black"/>
<path d="M18.4701 22.49H32.0001C32.2653 22.49 32.5197 22.3846 32.7072 22.1971C32.8947 22.0096 33.0001 21.7552 33.0001 21.49C33.0001 21.2248 32.8947 20.9704 32.7072 20.7829C32.5197 20.5954 32.2653 20.49 32.0001 20.49H18.4701C18.2049 20.49 17.9505 20.5954 17.763 20.7829C17.5755 20.9704 17.4701 21.2248 17.4701 21.49C17.4701 21.7552 17.5755 22.0096 17.763 22.1971C17.9505 22.3846 18.2049 22.49 18.4701 22.49Z" fill="black"/>
<path d="M46.1501 27.15H18.4701C18.2049 27.15 17.9505 27.2554 17.763 27.4429C17.5755 27.6304 17.4701 27.8848 17.4701 28.15C17.4701 28.4152 17.5755 28.6696 17.763 28.8571C17.9505 29.0446 18.2049 29.15 18.4701 29.15H46.1501C46.4153 29.15 46.6697 29.0446 46.8572 28.8571C47.0447 28.6696 47.1501 28.4152 47.1501 28.15C47.1501 27.8848 47.0447 27.6304 46.8572 27.4429C46.6697 27.2554 46.4153 27.15 46.1501 27.15Z" fill="black"/>
<path d="M46.1501 33.81H18.4701C18.2049 33.81 17.9505 33.9154 17.763 34.1029C17.5755 34.2904 17.4701 34.5448 17.4701 34.81C17.4701 35.0752 17.5755 35.3296 17.763 35.5171C17.9505 35.7046 18.2049 35.81 18.4701 35.81H46.1501C46.4153 35.81 46.6697 35.7046 46.8572 35.5171C47.0447 35.3296 47.1501 35.0752 47.1501 34.81C47.1501 34.5448 47.0447 34.2904 46.8572 34.1029C46.6697 33.9154 46.4153 33.81 46.1501 33.81Z" fill="black"/>
<path d="M46.1501 40.46H18.4701C18.2049 40.46 17.9505 40.5654 17.763 40.7529C17.5755 40.9404 17.4701 41.1948 17.4701 41.46C17.4701 41.7252 17.5755 41.9796 17.763 42.1671C17.9505 42.3546 18.2049 42.46 18.4701 42.46H46.1501C46.4153 42.46 46.6697 42.3546 46.8572 42.1671C47.0447 41.9796 47.1501 41.7252 47.1501 41.46C47.1501 41.1948 47.0447 40.9404 46.8572 40.7529C46.6697 40.5654 46.4153 40.46 46.1501 40.46Z" fill="black"/>
<path d="M46.1501 47.12H18.4701C18.2049 47.12 17.9505 47.2254 17.763 47.4129C17.5755 47.6004 17.4701 47.8548 17.4701 48.12C17.4701 48.3852 17.5755 48.6396 17.763 48.8271C17.9505 49.0146 18.2049 49.12 18.4701 49.12H46.1501C46.4153 49.12 46.6697 49.0146 46.8572 48.8271C47.0447 48.6396 47.1501 48.3852 47.1501 48.12C47.1501 47.8548 47.0447 47.6004 46.8572 47.4129C46.6697 47.2254 46.4153 47.12 46.1501 47.12Z" fill="black"/>
</svg>
